<?xml version="1.0" standalone="no"?>
<!DOCTYPE svg PUBLIC "-//W3C//DTD SVG 20010904//EN"
 "http://www.w3.org/TR/2001/REC-SVG-20010904/DTD/svg10.dtd">
<svg version="1.0" xmlns="http://www.w3.org/2000/svg"
 width="170.000000pt" height="170.000000pt" viewBox="0 0 170.000000 170.000000"
 preserveAspectRatio="xMidYMid meet">
<metadata>
Created by potrace 1.10, written by Peter Selinger 2001-2011
</metadata>
<g transform="translate(0.000000,170.000000) scale(0.100000,-0.100000)"
fill="#000000" stroke="none">
<path d="M983 1685 c-9 -24 1 -27 15 -5 8 13 8 20 2 20 -6 0 -13 -7 -17 -15z"/>
<path d="M933 1668 c-65 -72 -99 -244 -110 -554 -7 -203 -4 -230 27 -230 27 0
28 6 34 246 2 118 11 244 20 297 26 152 76 257 76 159 0 -38 46 -114 86 -143
58 -41 156 -70 194 -58 16 5 20 15 20 48 0 137 -115 258 -242 257 -22 -1 -22
-1 -4 -15 10 -8 23 -12 27 -9 12 7 90 -31 121 -59 32 -30 60 -82 65 -122 2
-16 6 -38 9 -47 6 -19 0 -21 -61 -21 -44 0 -122 41 -149 77 -13 17 -31 57 -40
88 -15 48 -21 56 -38 53 -24 -5 -47 -33 -48 -57 0 -10 -4 -18 -8 -18 -5 0 -9
-6 -9 -12 -1 -34 -15 -94 -24 -103 -6 -6 -7 2 -3 25 15 85 37 145 65 172 29
29 37 48 21 48 -5 0 -18 -10 -29 -22z m-57 -285 c-2 -27 -5 -66 -6 -88 -1 -32
-3 -36 -10 -20 -8 18 -6 78 6 133 8 40 15 23 10 -25z m-16 -313 c-1 -99 -6
-170 -11 -170 -6 0 -8 57 -5 143 2 78 5 154 5 170 1 15 3 27 6 27 3 0 5 -76 5
-170z"/>
<path d="M239 1311 c61 -60 113 -140 221 -341 85 -160 139 -245 192 -305 l30
-35 -196 0 c-183 0 -196 -1 -206 -19 -24 -46 0 -86 54 -93 26 -3 31 -10 58
-88 17 -47 50 -141 74 -210 25 -69 47 -131 50 -139 11 -32 15 1 4 36 -24 77
-72 209 -86 235 -23 42 -16 44 24 7 58 -55 69 -61 113 -66 32 -4 48 1 80 22
76 50 90 45 195 -56 68 -66 99 -89 118 -89 33 0 92 30 128 64 32 30 58 33 96
9 15 -9 28 -17 29 -18 1 0 -9 -31 -22 -68 -26 -70 -31 -98 -17 -82 8 9 21 45
121 330 36 103 40 110 67 113 54 7 78 47 54 93 -10 18 -23 19 -206 19 l-196 0
30 35 c53 60 107 145 192 305 108 201 160 281 221 341 50 48 50 49 22 49 -52
0 -134 -28 -211 -72 -102 -58 -256 -206 -330 -317 l-57 -86 -3 -105 -3 -105
46 65 c25 36 85 142 132 235 46 94 94 184 104 202 17 26 126 113 144 113 3 0
-15 -27 -40 -60 -24 -34 -89 -150 -144 -258 -55 -108 -123 -230 -151 -269
l-51 -73 -70 0 -69 0 -52 76 c-29 41 -98 164 -153 273 -55 109 -120 223 -143
255 -23 31 -40 56 -37 56 10 0 97 -64 124 -91 14 -15 70 -114 124 -220 53
-107 115 -219 137 -249 l40 -55 0 93 c0 75 -4 101 -21 135 -64 127 -243 312
-371 385 -77 44 -159 72 -211 72 -28 0 -28 -1 22 -49z m123 -16 c9 -6 37 -40
62 -76 41 -58 68 -109 144 -267 14 -29 30 -55 34 -58 4 -3 8 -14 8 -24 0 -10
3 -20 8 -22 4 -1 20 -29 37 -60 16 -32 33 -58 37 -58 4 0 8 -6 8 -13 0 -7 16
-29 36 -50 l36 -37 -38 0 c-29 0 -42 5 -49 19 -6 11 -35 54 -65 97 -62 87
-100 152 -161 274 -42 85 -131 227 -166 265 -47 53 -47 54 4 37 27 -8 56 -20
65 -27z m1077 28 c-7 -10 -18 -22 -24 -28 -12 -11 -99 -135 -106 -150 -34 -82
-207 -379 -260 -444 -21 -28 -39 -55 -39 -61 0 -5 -19 -10 -41 -10 l-41 0 36
37 c20 21 36 43 36 49 0 7 3 14 8 16 11 5 34 47 138 253 88 176 157 285 194
310 12 8 63 28 109 44 2 0 -3 -7 -10 -16z m-758 -286 c30 -38 70 -94 89 -126
31 -51 35 -64 32 -115 l-4 -56 -29 40 c-17 23 -68 115 -114 206 -71 139 -80
161 -56 142 15 -13 52 -54 82 -91z m386 -7 c-29 -58 -54 -107 -57 -110 -3 -3
-14 -24 -24 -46 -10 -23 -31 -61 -47 -85 -23 -35 -29 -40 -35 -26 -16 42 3
112 48 182 42 66 157 200 164 192 2 -1 -20 -50 -49 -107z m326 -430 c5 -4 7
-18 5 -31 -2 -20 -11 -25 -48 -31 -72 -11 -940 -7 -999 6 -47 9 -52 12 -49 36
l3 25 190 5 c257 7 888 0 898 -10z m-73 -85 c0 -3 -9 -23 -20 -45 -11 -22 -20
-45 -20 -51 0 -7 -14 -47 -31 -90 -28 -69 -34 -77 -50 -69 -37 20 -85 11 -132
-25 -26 -20 -62 -37 -86 -41 l-41 -7 -85 88 -84 88 -51 -6 c-28 -3 -64 -15
-79 -27 -49 -34 -88 -27 -158 30 -43 35 -65 60 -73 87 -7 21 -16 42 -21 48 -5
5 -9 13 -9 17 0 4 211 8 470 8 259 0 470 -2 470 -5z"/>
<path d="M280 45 c-10 -12 -10 -18 0 -30 15 -19 31 -20 24 -2 -7 18 249 29
616 25 389 -3 453 -6 446 -24 -7 -19 8 -18 24 1 10 12 10 18 0 30 -19 23
-1091 23 -1110 0z"/>
</g>
</svg>
