<?xml version="1.0" standalone="no"?>
<!DOCTYPE svg PUBLIC "-//W3C//DTD SVG 20010904//EN"
 "http://www.w3.org/TR/2001/REC-SVG-20010904/DTD/svg10.dtd">
<svg version="1.0" xmlns="http://www.w3.org/2000/svg"
 width="300.000000pt" height="236.000000pt" viewBox="0 0 300.000000 236.000000"
 preserveAspectRatio="xMidYMid meet">
<metadata>
Created by potrace 1.10, written by Peter Selinger 2001-2011
</metadata>
<g transform="translate(0.000000,236.000000) scale(0.100000,-0.100000)"
fill="#000000" stroke="none">
<path d="M1375 2144 c-313 -51 -563 -236 -694 -515 l-39 -82 34 -24 c19 -12
47 -29 63 -38 l29 -14 -8 34 c-4 20 -4 35 1 35 5 0 9 -10 10 -22 0 -23 0 -23
10 1 5 13 12 22 14 19 3 -3 1 -18 -5 -33 -6 -15 -9 -29 -8 -30 2 -1 49 -6 106
-11 l104 -9 -4 37 c-2 21 0 38 4 38 5 0 8 -15 9 -32 l1 -33 14 34 c19 41 28
36 13 -8 -6 -18 -10 -34 -8 -36 2 -2 46 -6 97 -10 l92 -8 0 37 c0 38 20 51 21
14 l0 -23 9 23 c5 12 15 22 22 23 7 1 2 4 -12 8 -36 11 -50 3 -50 -29 0 -25
-3 -28 -35 -28 -46 0 -58 23 -50 94 3 32 2 53 -3 50 -5 -3 -12 -28 -14 -56 -5
-52 -13 -69 -25 -56 -8 8 -8 105 0 126 3 8 20 55 36 103 35 101 64 143 124
182 23 15 70 56 104 92 52 55 60 68 51 83 -6 9 -8 25 -5 34 6 15 16 17 64 12
43 -3 49 -3 23 3 l-35 8 38 2 c21 0 37 -4 37 -10 0 -7 14 -9 38 -6 38 4 194
-30 254 -56 105 -46 126 -57 153 -81 17 -14 35 -26 40 -26 6 0 28 -17 50 -38
22 -21 48 -41 58 -45 20 -7 23 -53 5 -60 -10 -3 -10 -9 0 -26 15 -25 16 -57 2
-66 -5 -3 -25 5 -44 20 -29 22 -34 32 -39 83 -5 44 -11 61 -29 74 -13 9 -32
25 -43 35 -38 35 -85 53 -85 33 0 -5 9 -10 20 -10 12 0 25 -10 32 -25 6 -14
14 -25 18 -25 3 0 14 -6 24 -13 17 -13 17 -15 2 -46 -21 -40 -55 -39 -74 2
-16 32 -34 42 -59 32 -38 -16 -93 -15 -99 0 -8 19 -28 19 -44 0 -11 -13 -9
-19 9 -34 11 -10 21 -26 21 -34 0 -9 9 -21 20 -27 15 -8 18 -18 15 -43 -5 -32
-5 -32 6 -5 7 19 15 25 26 21 11 -4 14 -3 9 6 -5 7 -1 17 7 24 9 7 17 23 19
36 2 14 13 27 26 32 13 5 21 5 18 0 -3 -4 3 -16 14 -26 11 -10 20 -31 20 -48
0 -24 3 -28 18 -22 31 13 46 10 50 -10 4 -25 32 -84 51 -108 23 -28 -4 -46
-70 -49 -21 -1 -25 -5 -21 -22 3 -12 12 -26 20 -32 23 -17 7 -41 -32 -48 -41
-8 -60 -1 -52 20 10 25 -21 15 -64 -21 -29 -24 -49 -34 -61 -30 -14 5 -19 1
-19 -14 0 -11 -6 -24 -14 -28 -7 -4 -15 -22 -18 -40 l-4 -31 58 -7 c32 -4 80
-4 107 0 l49 7 -5 55 c-5 43 -3 54 6 49 7 -5 10 -14 7 -22 -3 -7 -1 -16 4 -19
6 -4 10 1 10 9 0 8 5 18 11 22 9 5 10 -1 5 -22 -21 -84 -24 -76 30 -69 27 4
88 18 135 32 l87 25 -9 31 c-8 30 -4 54 5 26 13 -41 14 -43 15 -22 1 12 6 25
12 29 8 4 9 -3 4 -24 l-6 -31 66 18 c36 10 68 21 72 24 9 9 -36 137 -73 207
-116 221 -329 389 -569 451 -79 20 -266 33 -330 23z m-7 -59 c9 -19 8 -27 -4
-40 -9 -8 -20 -15 -26 -15 -6 0 -8 -3 -4 -7 7 -7 -92 -103 -107 -103 -33 0
-148 -174 -132 -200 3 -5 1 -11 -4 -14 -14 -9 -44 -113 -38 -130 6 -16 -16
-40 -26 -29 -4 3 -7 0 -7 -7 0 -11 -3 -11 -12 -2 -19 19 -26 15 -38 -24 -12
-35 -13 -35 -54 -30 -22 3 -56 5 -74 5 -18 1 -31 5 -27 10 3 5 0 20 -5 33 -13
28 -63 32 -68 5 -4 -18 -32 -24 -32 -6 0 5 -4 8 -9 5 -10 -6 -21 16 -21 40 0
9 5 12 12 8 7 -4 8 -3 4 5 -4 6 0 23 9 38 12 18 13 23 4 19 -8 -4 -4 1 9 10
12 9 22 23 22 30 0 15 44 87 70 114 101 109 114 120 130 120 6 0 9 3 7 8 -2 4
4 15 15 25 10 9 18 15 18 12 0 -3 19 7 43 23 40 27 128 72 172 88 36 13 40 14
80 23 67 15 81 13 93 -14z m642 -261 c0 -42 32 -94 58 -94 7 0 12 -4 12 -10 0
-5 9 -10 19 -10 23 0 35 31 26 67 -3 13 -3 33 0 43 6 18 7 18 24 2 10 -9 16
-20 14 -24 -2 -5 7 -18 20 -30 13 -13 40 -53 61 -89 37 -68 92 -214 76 -204
-5 3 -11 1 -15 -5 -3 -5 -22 -10 -41 -10 -19 0 -33 4 -30 9 3 5 -1 12 -10 15
-27 10 -64 7 -65 -6 -1 -7 -2 -22 -3 -33 -1 -13 -12 -22 -38 -28 -21 -5 -38
-12 -38 -17 0 -4 -13 -6 -30 -4 -16 2 -30 0 -30 -5 0 -11 -38 -21 -55 -15 -7
3 -16 12 -19 20 -3 8 -2 13 3 10 5 -3 11 6 14 19 5 29 -20 49 -47 39 -9 -3
-16 -1 -16 5 0 6 6 11 14 11 8 0 28 11 44 25 26 22 31 23 42 10 7 -8 19 -15
26 -15 8 0 14 -5 14 -11 0 -8 5 -8 15 1 19 16 19 37 0 74 -8 15 -15 40 -15 55
0 14 -11 43 -25 63 -14 20 -25 47 -25 60 0 32 -37 63 -56 47 -11 -9 -14 -8
-14 5 0 9 8 16 19 16 23 0 51 36 51 65 0 16 2 17 10 5 5 -8 10 -33 10 -56z
m-220 33 c21 5 22 3 17 -18 -4 -13 -7 -27 -7 -30 0 -11 -29 -19 -45 -13 -8 4
-15 14 -15 24 0 10 -7 20 -15 24 -8 3 -15 12 -15 21 0 14 3 14 28 1 16 -8 39
-12 52 -9z m256 -302 c9 -25 14 -48 11 -51 -3 -3 -20 5 -39 18 -18 12 -35 24
-37 25 -6 4 29 53 38 53 5 0 17 -20 27 -45z m-72 10 c-4 -8 -10 -12 -15 -9
-14 8 -10 24 6 24 9 0 12 -6 9 -15z m-120 -70 c3 -8 12 -15 21 -15 8 0 15 -4
15 -10 0 -5 -4 -10 -10 -10 -5 0 -10 -20 -10 -45 l0 -45 -80 0 c-44 0 -80 3
-80 7 0 4 5 22 12 40 11 31 29 40 63 33 5 -1 7 1 3 5 -6 7 40 54 53 55 4 0 9
-7 13 -15z m-747 -21 c-3 -3 -12 -4 -19 -1 -8 3 -5 6 6 6 11 1 17 -2 13 -5z"/>
<path d="M1615 1709 c-4 -5 1 -12 9 -15 22 -9 20 -21 -9 -56 -14 -17 -24 -33
-21 -35 3 -3 16 7 29 22 27 32 52 26 41 -8 -5 -17 -4 -19 6 -10 7 6 19 9 26 6
24 -9 15 13 -16 40 -16 15 -30 33 -30 41 0 17 -27 29 -35 15z"/>
<path d="M1890 1600 c0 -5 5 -10 10 -10 6 0 10 5 10 10 0 6 -4 10 -10 10 -5 0
-10 -4 -10 -10z"/>
<path d="M1721 1574 c13 -16 29 -19 29 -5 0 5 -9 11 -21 14 -16 4 -18 3 -8 -9z"/>
<path d="M1655 1570 c-4 -6 6 -10 22 -10 22 0 25 2 13 10 -19 12 -27 12 -35 0z"/>
<path d="M637 1512 c-20 -35 -32 -135 -31 -262 1 -127 4 -156 28 -233 77 -257
259 -465 498 -570 218 -97 500 -98 703 -2 58 27 34 34 -35 10 -57 -20 -89 -19
-145 5 -26 11 -60 20 -75 20 -31 0 -80 19 -80 31 0 4 13 33 30 64 17 31 30 69
30 84 0 15 7 74 15 131 9 57 14 109 11 117 -3 7 -1 13 4 13 6 0 10 8 10 18 0
9 16 49 36 87 37 71 40 93 31 215 -2 19 -4 47 -5 62 -2 21 -8 28 -34 33 -18 4
-40 9 -49 11 -22 6 -43 -47 -42 -108 1 -38 -3 -51 -18 -59 -10 -5 -37 -34 -60
-65 -22 -30 -51 -59 -65 -64 -13 -5 -24 -15 -24 -22 1 -15 24 -48 35 -48 4 0
21 -10 38 -22 23 -16 42 -21 79 -19 50 3 62 -10 36 -38 -11 -10 -10 -11 3 -6
14 5 14 -2 2 -67 -8 -40 -15 -98 -18 -128 -4 -67 -32 -143 -49 -133 -6 3 -8 3
-4 -1 4 -5 3 -19 -3 -33 -7 -19 -5 -29 10 -45 11 -11 24 -17 30 -13 6 3 11 1
11 -4 0 -6 17 -11 38 -11 21 0 43 -5 50 -12 7 -7 12 -9 12 -5 0 4 9 3 21 -4
l21 -11 -21 -14 c-17 -12 -51 -14 -183 -10 -243 8 -231 6 -211 28 9 10 23 18
32 18 26 0 61 29 61 52 0 11 -15 34 -34 52 -27 24 -37 44 -47 93 -11 51 -10
64 1 78 7 9 14 28 15 41 1 28 19 44 50 44 37 0 86 51 90 93 3 35 1 37 -25 37
-36 0 -70 42 -106 131 -14 35 -30 68 -35 73 -5 6 3 15 22 23 28 11 31 17 26
42 -8 41 23 69 58 53 31 -14 31 -23 0 -61 -37 -43 -49 -117 -25 -146 17 -20
33 -9 20 15 -18 33 -11 60 30 111 45 57 61 104 53 156 -4 26 -3 34 5 29 7 -4
12 -3 12 1 0 12 -165 47 -190 40 -11 -3 -18 -1 -14 4 3 5 -2 9 -10 9 -8 0 -18
-4 -21 -10 -3 -5 -1 -10 5 -10 19 0 49 -82 56 -152 7 -66 6 -67 -19 -73 -34
-9 -47 0 -48 33 -1 20 -3 22 -6 8 -4 -16 15 -67 48 -129 7 -12 6 -19 -3 -21
-7 -2 -40 -13 -73 -25 -54 -18 -66 -19 -130 -8 l-70 12 3 45 c2 24 11 58 19
73 11 21 12 32 4 40 -8 8 -11 6 -11 -6 0 -13 -9 -17 -37 -17 l-38 0 3 92 c3
99 16 148 38 148 8 0 14 4 14 9 0 8 -94 21 -156 21 -31 0 -33 -2 -40 -45 -5
-38 -2 -55 24 -107 27 -55 29 -66 18 -83 -24 -37 -45 -30 -67 22 -12 26 -29
56 -38 66 -20 24 -23 147 -3 147 6 0 12 4 12 10 0 12 -98 62 -103 52z m54 -53
c-2 -2 1 -13 7 -25 8 -14 8 -32 1 -61 -10 -35 -8 -44 15 -78 14 -21 26 -44 26
-51 0 -8 13 -28 29 -45 23 -24 34 -29 55 -23 14 3 28 14 31 24 8 24 3 80 -7
80 -4 0 -8 7 -8 15 0 8 -4 15 -9 15 -5 0 -12 7 -15 16 -3 9 -2 12 5 8 6 -3 5
2 -2 13 -8 14 -9 28 -2 49 8 25 14 29 44 28 86 -4 85 -4 69 -14 -13 -9 -13
-10 0 -10 10 0 11 -3 4 -8 -7 -4 -13 -49 -16 -109 -3 -85 -1 -104 12 -109 19
-9 27 -11 43 -13 11 -1 12 -12 7 -48 -10 -61 -6 -70 39 -93 56 -28 166 -15
253 31 14 7 23 -2 47 -44 35 -61 62 -89 82 -85 20 4 14 -47 -8 -70 -10 -11
-29 -23 -43 -26 -52 -15 -70 -29 -70 -56 0 -15 -6 -33 -13 -39 -11 -8 -12 -24
-5 -68 12 -79 25 -108 54 -122 35 -16 29 -51 -13 -72 -18 -9 -39 -21 -46 -28
-13 -10 -17 -10 -112 25 -11 4 -26 8 -33 10 -7 1 -21 12 -31 23 -10 11 -21 18
-24 15 -7 -7 -49 17 -65 39 -7 9 -18 14 -24 11 -7 -4 -8 -2 -4 4 4 7 2 12 -4
12 -6 0 -8 5 -4 12 4 7 3 8 -4 4 -16 -10 -122 98 -188 190 -29 40 -64 110 -64
127 0 18 -28 75 -41 82 -5 4 -7 10 -5 14 3 4 -1 25 -9 47 -7 21 -11 52 -10 69
2 16 -1 35 -6 41 -11 13 -9 194 2 194 4 0 6 14 4 31 -1 18 2 47 8 65 10 32 12
33 31 20 12 -7 19 -15 17 -17z m684 -86 c47 -7 55 -16 55 -65 0 -39 -15 -57
-33 -39 -15 15 -74 14 -80 -1 -5 -11 -11 35 -8 55 0 4 -2 7 -6 7 -5 0 -9 14
-10 31 -2 28 0 30 20 25 12 -3 40 -9 62 -13z m197 -100 c-2 -7 -9 -13 -14 -13
-6 0 -7 7 -4 16 3 9 6 25 7 37 1 20 2 20 8 -3 4 -14 6 -31 3 -37z m38 36 c5 9
11 8 24 -4 12 -12 16 -37 18 -91 0 -41 1 -80 2 -86 1 -7 -8 -14 -18 -16 -14
-3 -17 0 -13 11 4 10 -7 27 -29 46 -36 32 -43 63 -19 87 8 9 16 30 16 47 1 20
3 25 6 13 4 -13 7 -15 13 -7z m-29 -150 c36 -25 37 -41 4 -37 -14 2 -24 6 -23
9 2 4 -6 16 -16 28 -25 27 -4 28 35 0z m-45 -21 c4 -6 3 -8 -3 -5 -16 10 -25
-21 -13 -44 13 -23 36 -25 44 -3 5 14 4 15 -7 5 -11 -9 -17 -8 -27 4 -7 9 -10
19 -6 22 4 4 11 2 15 -5 4 -8 15 -10 26 -6 14 6 17 4 12 -9 -3 -9 -2 -19 4
-22 5 -4 6 -12 3 -18 -4 -7 -4 -9 1 -5 4 4 14 3 22 -3 10 -9 10 -15 2 -25 -6
-8 -8 -14 -5 -14 4 0 0 -12 -9 -27 -15 -25 -22 -28 -68 -28 -38 0 -61 6 -84
23 -17 12 -36 22 -42 22 -22 0 -10 18 29 44 23 15 38 31 35 35 -3 5 2 11 10
15 8 3 15 11 15 19 0 14 19 37 31 37 4 0 11 -5 15 -12z m75 -42 c-9 -10 -8
-15 4 -20 9 -3 15 0 15 9 0 8 4 15 9 15 17 0 20 -15 5 -34 -12 -16 -16 -17
-31 -5 -10 7 -19 14 -21 15 -7 3 11 34 20 34 7 0 6 -5 -1 -14z"/>
<path d="M1256 1478 c-10 -40 -7 -48 22 -48 15 0 68 -9 118 -20 49 -11 92 -20
97 -20 4 0 8 15 8 33 2 27 3 28 6 6 2 -14 0 -44 -5 -66 -8 -33 -7 -40 4 -36 8
3 14 25 16 56 2 31 8 52 16 55 11 3 12 0 2 -18 -18 -33 -6 -47 47 -54 26 -4
56 -9 65 -12 15 -4 15 -1 2 48 -17 64 -16 61 -4 53 6 -3 10 -15 10 -26 0 -10
5 -19 10 -19 6 0 10 9 10 20 0 12 7 20 18 20 14 0 15 2 2 10 -9 5 -19 5 -26
-1 -8 -7 -14 -6 -19 1 -12 20 -26 -2 -23 -39 3 -35 2 -36 -30 -37 -27 -1 -33
3 -38 25 -3 14 -7 30 -8 35 -5 21 -51 13 -72 -12 -20 -24 -23 -25 -39 -12 -10
8 -30 16 -44 17 -14 2 -46 5 -71 7 -25 3 -48 5 -51 5 -3 1 -5 12 -4 26 4 31
-11 33 -19 3z"/>
<path d="M781 1444 c0 -11 3 -14 6 -6 3 7 2 16 -1 19 -3 4 -6 -2 -5 -13z"/>
<path d="M1000 1451 c0 -6 4 -13 10 -16 6 -3 7 1 4 9 -7 18 -14 21 -14 7z"/>
<path d="M2330 1441 c-8 -5 -39 -14 -67 -21 -46 -10 -53 -15 -53 -36 0 -13 -4
-24 -10 -24 -5 0 -10 9 -10 20 0 11 -1 20 -2 20 -2 0 -28 -9 -58 -21 -42 -16
-180 -49 -206 -49 -2 0 -13 -19 -25 -41 -17 -35 -19 -46 -9 -64 10 -19 9 -33
-5 -74 -13 -41 -16 -71 -11 -144 4 -51 9 -153 12 -227 l6 -136 43 -17 c23 -10
53 -29 65 -42 23 -24 23 -25 3 -25 -11 0 -26 -7 -33 -15 -17 -21 -28 -19 -35
8 -12 44 -28 77 -35 77 -9 0 5 -67 23 -111 l12 -31 65 48 c110 81 237 224 270
306 7 17 9 19 9 6 1 -13 7 -17 24 -14 12 3 30 5 40 5 10 1 16 5 13 10 -3 4 0
22 6 39 9 24 9 45 -1 94 -9 48 -10 75 -1 113 20 87 13 356 -8 355 -4 0 -14 -4
-22 -9z m13 -58 c9 -66 1 -277 -11 -300 -12 -22 -12 -30 7 -109 17 -68 -3
-120 -43 -110 -28 7 -49 -11 -76 -64 -13 -25 -32 -53 -43 -62 -11 -10 -18 -18
-15 -18 5 0 -66 -73 -115 -117 l-24 -22 -23 24 c-12 13 -35 27 -50 30 -34 8
-40 33 -36 160 2 55 -1 93 -7 97 -14 8 -18 217 -5 241 15 29 18 77 6 96 -14
22 14 69 49 82 40 15 83 20 83 9 0 -5 9 -1 21 11 15 15 30 20 50 17 17 -3 32
-1 35 4 7 10 41 11 46 0 2 -4 19 1 38 11 19 10 27 16 18 13 -11 -3 -15 0 -12
8 4 11 43 25 95 35 4 0 9 -16 12 -36z"/>
<path d="M2311 1164 c0 -11 3 -14 6 -6 3 7 2 16 -1 19 -3 4 -6 -2 -5 -13z"/>
<path d="M2000 1031 c0 -5 7 -11 15 -15 8 -3 15 -1 15 3 0 5 -7 11 -15 15 -8
3 -15 1 -15 -3z"/>
<path d="M1220 1430 c0 -10 -20 -11 -96 -6 l-95 7 3 -48 c3 -44 6 -49 42 -69
40 -22 40 -22 78 -3 41 21 61 49 52 74 -4 10 1 21 12 30 11 7 16 17 11 21 -4
4 -7 1 -7 -6z m-56 -26 c26 -10 19 -48 -13 -72 l-30 -22 -6 33 c-4 17 -9 40
-11 50 -4 13 1 17 20 17 13 0 31 -3 40 -6z m-72 -24 c0 -11 1 -26 2 -32 1 -7
-6 -13 -14 -13 -8 0 -14 6 -12 13 1 6 -2 12 -8 12 -5 0 -10 9 -10 20 0 13 7
20 20 20 13 0 21 -7 22 -20z"/>
<path d="M1690 1288 c0 -33 3 -38 28 -44 15 -3 33 -7 40 -10 27 -8 102 9 102
23 0 8 6 26 14 41 l14 27 -99 0 -99 0 0 -37z m90 12 c-9 -6 -10 -10 -3 -10 6
0 15 5 18 10 3 6 13 10 21 10 11 0 14 -6 9 -22 -5 -18 -4 -19 4 -8 5 8 13 12
16 8 3 -3 -1 -13 -10 -22 -18 -18 -95 -23 -95 -6 0 6 -7 10 -15 10 -19 0 -8
28 13 33 10 3 26 5 37 6 16 1 17 -1 5 -9z"/>
<path d="M1105 1259 c-4 -6 -4 -13 -1 -16 3 -4 6 -1 6 5 0 7 5 12 11 12 6 0 8
-9 4 -22 -5 -20 -4 -21 5 -5 11 17 6 37 -10 37 -5 0 -12 -5 -15 -11z"/>
<path d="M1135 1188 c3 -16 0 -28 -8 -31 -9 -4 -9 -6 0 -6 19 -1 24 15 13 41
-10 22 -10 22 -5 -4z"/>
<path d="M2287 363 c-4 -3 -7 -13 -7 -21 0 -21 -83 -142 -95 -138 -5 1 -17 31
-26 65 -18 70 -35 94 -45 68 -3 -9 6 -54 20 -99 l27 -81 -43 -44 c-30 -30 -39
-46 -31 -54 22 -22 243 262 230 296 -7 16 -19 19 -30 8z"/>
<path d="M755 323 c-3 -16 -15 -72 -28 -126 -13 -54 -19 -101 -15 -104 14 -8
20 2 33 54 11 45 14 48 41 45 36 -5 58 -24 79 -68 9 -19 20 -34 25 -34 31 0
12 56 -34 99 l-26 24 30 18 c37 23 62 61 54 83 -9 24 -45 36 -104 36 -46 0
-50 -2 -55 -27z m129 -22 c7 -11 -31 -45 -81 -70 -24 -12 -43 -20 -43 -18 0 2
7 24 16 50 16 46 17 47 59 47 24 0 46 -4 49 -9z"/>
<path d="M971 223 c-20 -80 -28 -130 -22 -136 6 -6 15 3 26 24 21 42 64 89 81
89 10 0 10 -9 -1 -41 -20 -55 -19 -71 2 -67 11 2 20 16 24 38 4 19 10 50 14
68 7 30 6 32 -18 32 -14 0 -39 -12 -56 -26 -17 -14 -31 -24 -31 -22 0 1 9 37
20 78 24 90 24 90 6 90 -9 0 -24 -41 -45 -127z"/>
<path d="M1860 319 c0 -6 8 -13 18 -16 18 -4 17 -8 -3 -86 -16 -61 -27 -83
-43 -90 -12 -6 -22 -14 -22 -19 0 -48 184 15 220 75 29 46 25 74 -14 113 -31
31 -39 34 -95 34 -37 0 -61 -4 -61 -11z m134 -40 c56 -44 14 -111 -91 -143
l-21 -7 20 78 c11 43 22 81 24 85 9 14 41 8 68 -13z"/>
<path d="M1935 210 c-16 -7 -12 -9 18 -9 23 -1 36 3 32 9 -7 12 -23 12 -50 0z"/>
<path d="M1555 248 c-60 -33 -64 -58 -14 -84 40 -20 36 -31 -11 -39 -41 -7
-52 -21 -25 -31 22 -9 74 15 87 39 9 17 7 24 -11 38 -12 10 -27 19 -34 22 -22
7 14 39 39 34 26 -5 41 18 18 27 -21 8 -26 7 -49 -6z"/>
<path d="M1708 245 c-52 -29 -85 -114 -56 -143 22 -22 72 -14 101 16 72 75 38
172 -45 127z m23 -107 c-33 -30 -61 -28 -61 4 0 32 20 59 53 73 32 13 32 13
35 -18 3 -25 -3 -37 -27 -59z"/>
<path d="M1175 224 c-69 -68 -50 -159 23 -108 21 14 22 14 22 -6 0 -43 25 -13
38 46 20 93 21 89 -20 92 -28 2 -42 -3 -63 -24z m65 -13 c0 -22 -34 -67 -61
-81 -32 -18 -25 36 10 71 34 33 51 37 51 10z"/>
<path d="M1329 248 c0 -2 -2 -14 -5 -28 -2 -14 -11 -59 -20 -100 -9 -41 -17
-82 -17 -90 -3 -23 27 -18 31 5 8 56 12 62 36 63 34 0 88 32 105 63 31 56 -16
107 -75 80 -15 -6 -24 -7 -24 -1 0 8 -28 15 -31 8z m111 -48 c0 -26 -42 -66
-75 -72 -26 -5 -31 8 -16 46 16 40 91 61 91 26z"/>
<path d="M15 210 c-12 -5 123 -9 340 -9 213 0 354 3 346 8 -18 12 -660 13
-686 1z"/>
<path d="M2270 210 c-14 -4 145 -8 353 -9 245 -1 377 2 377 9 0 12 -692 12
-730 0z"/>
<path d="M888 203 c12 -2 32 -2 45 0 12 2 2 4 -23 4 -25 0 -35 -2 -22 -4z"/>
<path d="M1593 203 c9 -2 25 -2 35 0 9 3 1 5 -18 5 -19 0 -27 -2 -17 -5z"/>
<path d="M1818 203 c6 -2 18 -2 25 0 6 3 1 5 -13 5 -14 0 -19 -2 -12 -5z"/>
<path d="M2073 203 c9 -2 25 -2 35 0 9 3 1 5 -18 5 -19 0 -27 -2 -17 -5z"/>
</g>
</svg>
